<svg xmlns="http://www.w3.org/2000/svg" version="1.1" width="256px" height="256px" style="shape-rendering:geometricPrecision; text-rendering:geometricPrecision; image-rendering:optimizeQuality; fill-rule:evenodd; clip-rule:evenodd" xmlns:xlink="http://www.w3.org/1999/xlink">
<g><path style="opacity:0.004" fill="#3c65c4" d="M 165.5,7.5 C 166.833,8.16667 166.833,8.16667 165.5,7.5 Z"/></g>
<g><path style="opacity:0.008" fill="#3c65c4" d="M 168.5,8.5 C 172.311,7.35472 176.311,7.18806 180.5,8C 176.514,8.49885 172.514,8.66551 168.5,8.5 Z"/></g>
<g><path style="opacity:0.822" fill="#3c65c4" d="M 48.5,61.5 C 42.1667,61.5 35.8333,61.5 29.5,61.5C 29.3084,53.8724 25.6417,51.3724 18.5,54C 17.13,55.4413 16.13,57.108 15.5,59C 10.3087,60.0104 5.47534,59.177 1,56.5C 0.617425,57.056 0.117425,57.3893 -0.5,57.5C -0.5,41.5 -0.5,25.5 -0.5,9.5C 0.647669,10.895 1.64767,10.7284 2.5,9C 15.8333,8.33333 29.1667,8.33333 42.5,9C 43.8023,13.7817 43.8023,18.615 42.5,23.5C 41.2054,24.0983 39.8721,24.5983 38.5,25C 31.1742,25.4997 23.8409,25.6663 16.5,25.5C 16.1774,29.226 16.5108,32.8927 17.5,36.5C 31.5051,31.4178 41.1718,35.7511 46.5,49.5C 47.2272,53.5406 47.8939,57.5406 48.5,61.5 Z"/></g>
<g><path style="opacity:0.967" fill="#3c65c4" d="M 248.5,64.5 C 230.91,63.5143 213.243,63.181 195.5,63.5C 191.291,60.2275 186.624,57.7275 181.5,56C 142.833,55.6667 104.167,55.3333 65.5,55C 60.0825,53.2498 56.2492,49.7498 54,44.5C 50.8633,34.8896 50.8633,25.223 54,15.5C 55.5429,13.6217 57.3762,12.1217 59.5,11C 91.1057,9.35575 122.772,9.02242 154.5,10C 172.135,10.186 189.468,12.5193 206.5,17C 220.8,23.6387 232.3,33.472 241,46.5C 243.8,52.3528 246.3,58.3528 248.5,64.5 Z"/></g>
<g><path style="opacity:0.008" fill="#3c65c4" d="M 220.5,20.5 C 222.337,20.6395 222.67,21.3061 221.5,22.5C 220.702,22.0431 220.369,21.3764 220.5,20.5 Z"/></g>
<g><path style="opacity:0.012" fill="#3c65c4" d="M 50.5,44.5 C 53.6005,47.8354 56.6005,51.3354 59.5,55C 54.6724,53.3221 51.6724,49.8221 50.5,44.5 Z"/></g>
<g><path style="opacity:0.004" fill="#3c67c4" d="M 249.5,56.5 C 250.833,57.1667 250.833,57.1667 249.5,56.5 Z"/></g>
<g><path style="opacity:0.778" fill="#3d6cc5" d="M 29.5,61.5 C 35.8333,61.5 42.1667,61.5 48.5,61.5C 49.1386,62.0968 49.472,62.9302 49.5,64C 48.6216,65.8001 47.955,67.6334 47.5,69.5C 41.6239,68.2892 35.6239,68.2892 29.5,69.5C 29.5,66.8333 29.5,64.1667 29.5,61.5 Z"/></g>
<g><path style="opacity:0.969" fill="#3d6cc5" d="M 195.5,63.5 C 213.243,63.181 230.91,63.5143 248.5,64.5C 249.612,66.5994 250.279,68.9327 250.5,71.5C 234.69,71.7328 218.69,71.7328 202.5,71.5C 199.875,69.2002 197.541,66.5336 195.5,63.5 Z"/></g>
<g><path style="opacity:0.898" fill="#3f6fc6" d="M 47.5,69.5 C 47.5,69.8333 47.5,70.1667 47.5,70.5C 41.5,70.5 35.5,70.5 29.5,70.5C 29.5,70.1667 29.5,69.8333 29.5,69.5C 35.6239,68.2892 41.6239,68.2892 47.5,69.5 Z"/></g>
<g><path style="opacity:0.807" fill="#3f72c7" d="M 29.5,70.5 C 35.5,70.5 41.5,70.5 47.5,70.5C 48.0102,73.3878 47.3435,75.7211 45.5,77.5C 39.1451,76.7476 32.4784,76.4143 25.5,76.5C 26.6542,74.3493 27.9875,72.3493 29.5,70.5 Z"/></g>
<g><path style="opacity:0.963" fill="#3f6fc6" d="M 202.5,72.5 C 202.5,72.1667 202.5,71.8333 202.5,71.5C 218.69,71.7328 234.69,71.7328 250.5,71.5C 251.338,71.8417 251.672,72.5084 251.5,73.5C 235.138,73.7734 218.805,73.4401 202.5,72.5 Z"/></g>
<g><path style="opacity:0.959" fill="#3f72c7" d="M 202.5,72.5 C 218.805,73.4401 235.138,73.7734 251.5,73.5C 251.5,75.5 251.5,77.5 251.5,79.5C 235.798,79.787 220.131,79.4537 204.5,78.5C 204.029,76.4214 203.363,74.4214 202.5,72.5 Z"/></g>
<g><path style="opacity:0.004" fill="#3f72c7" d="M 253.5,75.5 C 254.833,76.1667 254.833,76.1667 253.5,75.5 Z"/></g>
<g><path style="opacity:0.507" fill="#3f75c7" d="M -0.5,73.5 C 5.23304,76.2567 11.233,77.9234 17.5,78.5C 11.5,78.5 5.5,78.5 -0.5,78.5C -0.5,76.8333 -0.5,75.1667 -0.5,73.5 Z"/></g>
<g><path style="opacity:0.83" fill="#4075c8" d="M 25.5,76.5 C 32.4784,76.4143 39.1451,76.7476 45.5,77.5C 45.5,78.1667 45.5,78.8333 45.5,79.5C 36.8123,79.5865 28.1456,79.2532 19.5,78.5C 21.3736,77.7148 23.3736,77.0482 25.5,76.5 Z"/></g>
<g><path style="opacity:0.898" fill="#4179c8" d="M -0.5,78.5 C 5.5,78.5 11.5,78.5 17.5,78.5C 18.1667,78.5 18.8333,78.5 19.5,78.5C 28.1456,79.2532 36.8123,79.5865 45.5,79.5C 44.4196,81.9962 43.0862,84.3295 41.5,86.5C 27.5,86.5 13.5,86.5 -0.5,86.5C -0.5,83.8333 -0.5,81.1667 -0.5,78.5 Z"/></g>
<g><path style="opacity:0.944" fill="#4075c8" d="M 204.5,78.5 C 220.131,79.4537 235.798,79.787 251.5,79.5C 251.5,80.1667 251.5,80.8333 251.5,81.5C 235.833,81.5 220.167,81.5 204.5,81.5C 204.5,80.5 204.5,79.5 204.5,78.5 Z"/></g>
<g><path style="opacity:0.948" fill="#4179c8" d="M 204.5,81.5 C 220.167,81.5 235.833,81.5 251.5,81.5C 251.5,84.1667 251.5,86.8333 251.5,89.5C 236.155,89.5703 220.822,89.237 205.5,88.5C 205.552,86.0971 205.219,83.7638 204.5,81.5 Z"/></g>
<g><path style="opacity:0.758" fill="#437fc9" d="M -0.5,86.5 C 13.5,86.5 27.5,86.5 41.5,86.5C 36.0105,92.2843 29.1772,95.2843 21,95.5C 13.5523,94.6784 6.38566,93.0117 -0.5,90.5C -0.5,89.1667 -0.5,87.8333 -0.5,86.5 Z"/></g>
<g><path style="opacity:0.939" fill="#4380c9" d="M 205.5,88.5 C 220.822,89.237 236.155,89.5703 251.5,89.5C 251.806,92.3854 251.473,95.0521 250.5,97.5C 238.167,97.5 225.833,97.5 213.5,97.5C 210.167,97.5 206.833,97.5 203.5,97.5C 205.044,94.752 205.71,91.752 205.5,88.5 Z"/></g>
<g><path style="opacity:0.006" fill="#427dc9" d="M 253.5,79.5 C 254.653,85.3188 254.819,91.3188 254,97.5C 253.501,91.5092 253.334,85.5092 253.5,79.5 Z"/></g>
<g><path style="opacity:0.851" fill="#4484cb" d="M 203.5,97.5 C 206.833,97.5 210.167,97.5 213.5,97.5C 210.713,98.4767 207.713,98.81 204.5,98.5C 203.596,99.209 203.263,100.209 203.5,101.5C 202.833,101.5 202.5,101.833 202.5,102.5C 202.167,102.5 201.833,102.5 201.5,102.5C 201.796,100.597 202.463,98.9303 203.5,97.5 Z"/></g>
<g><path style="opacity:0.973" fill="#4586cb" d="M 213.5,97.5 C 225.833,97.5 238.167,97.5 250.5,97.5C 250.326,99.861 249.993,102.194 249.5,104.5C 233.824,104.521 218.157,104.187 202.5,103.5C 202.5,103.167 202.5,102.833 202.5,102.5C 203.167,102.5 203.5,102.167 203.5,101.5C 204.404,100.791 204.737,99.791 204.5,98.5C 207.713,98.81 210.713,98.4767 213.5,97.5 Z"/></g>
<g><path style="opacity:0.012" fill="#478bcc" d="M 40.5,102.5 C 42.5441,103.031 44.2107,104.198 45.5,106C 42.8082,106.319 41.1415,105.153 40.5,102.5 Z"/></g>
<g><path style="opacity:0.004" fill="#4689cc" d="M 201.5,102.5 C 200.833,103.167 200.833,103.167 201.5,102.5 Z"/></g>
<g><path style="opacity:0.956" fill="#478ccc" d="M 202.5,103.5 C 218.157,104.187 233.824,104.521 249.5,104.5C 249.167,106.5 248.833,108.5 248.5,110.5C 230.833,110.5 213.167,110.5 195.5,110.5C 197.86,108.14 200.194,105.806 202.5,103.5 Z"/></g>
<g><path style="opacity:0.004" fill="#478dcc" d="M 2.5,104.5 C 3.77329,105.077 3.77329,105.743 2.5,106.5C 1.53705,106.03 1.53705,105.363 2.5,104.5 Z"/></g>
<g><path style="opacity:0.708" fill="#488ecc" d="M 41.5,108.5 C 29.8275,108.333 18.1608,108 6.5,107.5C 6.91753,106.778 7.5842,106.278 8.5,106C 18.5,105.333 28.5,105.333 38.5,106C 39.9423,106.377 40.9423,107.21 41.5,108.5 Z"/></g>
<g><path style="opacity:0.957" fill="#4992cd" d="M 6.5,107.5 C 18.1608,108 29.8275,108.333 41.5,108.5C 43.8612,109.895 45.5279,111.895 46.5,114.5C 31.3154,114.705 16.3154,114.372 1.5,113.5C 2.0971,110.573 3.76376,108.573 6.5,107.5 Z"/></g>
<g><path style="opacity:0.006" fill="#488fcd" d="M 45.5,108.5 C 46.0768,107.227 46.7435,107.227 47.5,108.5C 47.0302,109.463 46.3635,109.463 45.5,108.5 Z"/></g>
<g><path style="opacity:0.961" fill="#4992cd" d="M 195.5,110.5 C 213.167,110.5 230.833,110.5 248.5,110.5C 247.677,112.987 246.677,115.321 245.5,117.5C 225.84,116.869 206.173,116.535 186.5,116.5C 189.602,114.773 192.602,112.773 195.5,110.5 Z"/></g>
<g><path style="opacity:0.975" fill="#4b96ce" d="M 1.5,113.5 C 16.3154,114.372 31.3154,114.705 46.5,114.5C 46.5,115.5 46.5,116.5 46.5,117.5C 31.1667,117.5 15.8333,117.5 0.5,117.5C 0.232191,115.901 0.565525,114.568 1.5,113.5 Z"/></g>
<g><path style="opacity:0.953" fill="#4b97ce" d="M 186.5,116.5 C 206.173,116.535 225.84,116.869 245.5,117.5C 244.89,118.391 244.557,119.391 244.5,120.5C 220.835,120.079 197.168,119.746 173.5,119.5C 177.692,118.392 182.025,117.392 186.5,116.5 Z"/></g>
<g><path style="opacity:0.98" fill="#4c9acf" d="M 0.5,117.5 C 15.8333,117.5 31.1667,117.5 46.5,117.5C 46.5,119.167 46.5,120.833 46.5,122.5C 31.2146,121.531 15.8813,121.198 0.5,121.5C 0.5,120.167 0.5,118.833 0.5,117.5 Z"/></g>
<g><path style="opacity:0.004" fill="#4a95ce" d="M 249.5,115.5 C 250.598,116.601 250.765,117.934 250,119.5C 249.51,118.207 249.343,116.873 249.5,115.5 Z"/></g>
<g><path style="opacity:0.872" fill="#4c9acf" d="M 173.5,119.5 C 197.168,119.746 220.835,120.079 244.5,120.5C 243.488,121.872 242.488,123.205 241.5,124.5C 179.169,123.603 116.836,122.936 54.5,122.5C 55.0906,121.849 55.7573,121.182 56.5,120.5C 95.4943,119.5 134.494,119.167 173.5,119.5 Z"/></g>
<g><path style="opacity:0.004" fill="#4c99cf" d="M 247.5,120.5 C 248.525,120.897 248.692,121.563 248,122.5C 247.536,121.906 247.369,121.239 247.5,120.5 Z"/></g>
<g><path style="opacity:0.983" fill="#4e9fcf" d="M 0.5,121.5 C 15.8813,121.198 31.2146,121.531 46.5,122.5C 46.5,124.5 46.5,126.5 46.5,128.5C 31.1682,128.111 15.8348,127.778 0.5,127.5C 0.5,125.5 0.5,123.5 0.5,121.5 Z"/></g>
<g><path style="opacity:0.983" fill="#4e9fcf" d="M 54.5,122.5 C 116.836,122.936 179.169,123.603 241.5,124.5C 240.167,126.5 238.833,128.5 237.5,130.5C 176.166,129.902 114.833,129.235 53.5,128.5C 53.4226,127.25 52.756,126.417 51.5,126C 52.1905,124.933 52.6905,123.766 53,122.5C 53.69,123.738 54.19,123.738 54.5,122.5 Z"/></g>
<g><path style="opacity:0.004" fill="#4d9ccf" d="M 244.5,125.5 C 244.73,123.017 245.397,122.517 246.5,124C 246.164,125.03 245.497,125.53 244.5,125.5 Z"/></g>
<g><path style="opacity:0.018" fill="#4ea0cf" d="M 244.5,125.5 C 244.725,127.716 243.892,129.383 242,130.5C 241.253,128.072 242.086,126.406 244.5,125.5 Z"/></g>
<g><path style="opacity:0.98" fill="#50a4d0" d="M 0.5,127.5 C 15.8348,127.778 31.1682,128.111 46.5,128.5C 46.5,130.167 46.5,131.833 46.5,133.5C 31.1881,132.601 15.8547,132.267 0.5,132.5C 0.5,130.833 0.5,129.167 0.5,127.5 Z"/></g>
<g><path style="opacity:0.992" fill="#50a4d0" d="M 53.5,128.5 C 114.833,129.235 176.166,129.902 237.5,130.5C 236.396,132.389 235.063,134.055 233.5,135.5C 173.503,134.594 113.503,133.927 53.5,133.5C 53.5,131.833 53.5,130.167 53.5,128.5 Z"/></g>
<g><path style="opacity:0.989" fill="#52a7d1" d="M 0.5,133.5 C 0.5,133.167 0.5,132.833 0.5,132.5C 15.8547,132.267 31.1881,132.601 46.5,133.5C 46.5,133.833 46.5,134.167 46.5,134.5C 31.1423,134.751 15.8089,134.418 0.5,133.5 Z"/></g>
<g><path style="opacity:0.979" fill="#53abd1" d="M 0.5,133.5 C 15.8089,134.418 31.1423,134.751 46.5,134.5C 46.5,136.5 46.5,138.5 46.5,140.5C 31.1667,140.5 15.8333,140.5 0.5,140.5C 0.5,138.167 0.5,135.833 0.5,133.5 Z"/></g>
<g><path style="opacity:0.994" fill="#52a7d1" d="M 53.5,134.5 C 53.5,134.167 53.5,133.833 53.5,133.5C 113.503,133.927 173.503,134.594 233.5,135.5C 233.5,136.167 233.167,136.5 232.5,136.5C 172.829,136.184 113.162,135.517 53.5,134.5 Z"/></g>
<g><path style="opacity:0.99" fill="#53abd1" d="M 53.5,134.5 C 113.162,135.517 172.829,136.184 232.5,136.5C 230.363,139.973 227.363,142.306 223.5,143.5C 166.8,142.585 110.133,141.585 53.5,140.5C 53.5,138.5 53.5,136.5 53.5,134.5 Z"/></g>
<g><path style="opacity:0.009" fill="#54acd2" d="M 232.5,139.5 C 233.043,139.56 233.376,139.893 233.5,140.5C 232.52,141.981 231.353,143.315 230,144.5C 229.833,144 229.667,143.5 229.5,143C 230.544,141.826 231.544,140.659 232.5,139.5 Z"/></g>
<g><path style="opacity:0.98" fill="#56b2d2" d="M 0.5,140.5 C 15.8333,140.5 31.1667,140.5 46.5,140.5C 46.5,143.167 46.5,145.833 46.5,148.5C 31.1573,148.51 15.824,148.177 0.5,147.5C 0.5,145.167 0.5,142.833 0.5,140.5 Z"/></g>
<g><path style="opacity:0.99" fill="#56b1d2" d="M 53.5,140.5 C 110.133,141.585 166.8,142.585 223.5,143.5C 220.743,146.579 217.41,148.912 213.5,150.5C 160.166,149.85 106.833,149.184 53.5,148.5C 53.5,145.833 53.5,143.167 53.5,140.5 Z"/></g>
<g><path style="opacity:0.004" fill="#56b2d3" d="M 225.5,146.5 C 226.833,147.167 226.833,147.167 225.5,146.5 Z"/></g>
<g><path style="opacity:0.977" fill="#59b8d3" d="M 0.5,147.5 C 15.824,148.177 31.1573,148.51 46.5,148.5C 46.5,150.833 46.5,153.167 46.5,155.5C 31.2146,154.531 15.8813,154.198 0.5,154.5C 0.5,152.167 0.5,149.833 0.5,147.5 Z"/></g>
<g><path style="opacity:0.004" fill="#57b3d3" d="M 223.5,147.5 C 224.525,147.897 224.692,148.563 224,149.5C 223.536,148.906 223.369,148.239 223.5,147.5 Z"/></g>
<g><path style="opacity:0.99" fill="#59b8d3" d="M 53.5,148.5 C 106.833,149.184 160.166,149.85 213.5,150.5C 212.026,151.675 210.36,152.675 208.5,153.5C 207.754,154.736 207.421,156.07 207.5,157.5C 156.182,156.304 104.849,155.637 53.5,155.5C 53.5,153.167 53.5,150.833 53.5,148.5 Z"/></g>
<g><path style="opacity:0.006" fill="#57b5d3" d="M 219.5,149.5 C 220.773,150.077 220.773,150.743 219.5,151.5C 218.537,151.03 218.537,150.363 219.5,149.5 Z"/></g>
<g><path style="opacity:0.004" fill="#59b8d3" d="M 215.5,152.5 C 216.833,153.167 216.833,153.167 215.5,152.5 Z"/></g>
<g><path style="opacity:0.98" fill="#5bbed4" d="M 0.5,154.5 C 15.8813,154.198 31.2146,154.531 46.5,155.5C 46.5,157.5 46.5,159.5 46.5,161.5C 31.1667,161.5 15.8333,161.5 0.5,161.5C 0.5,159.167 0.5,156.833 0.5,154.5 Z"/></g>
<g><path style="opacity:0.991" fill="#5bbed4" d="M 53.5,155.5 C 104.849,155.637 156.182,156.304 207.5,157.5C 208.471,159.483 209.471,161.483 210.5,163.5C 158.161,163.167 105.827,162.5 53.5,161.5C 53.5,159.5 53.5,157.5 53.5,155.5 Z"/></g>
<g><path style="opacity:0.978" fill="#5ec4d5" d="M 0.5,161.5 C 15.8333,161.5 31.1667,161.5 46.5,161.5C 46.5,164.167 46.5,166.833 46.5,169.5C 31.173,168.929 15.8397,168.595 0.5,168.5C 0.5,166.167 0.5,163.833 0.5,161.5 Z"/></g>
<g><path style="opacity:0.865" fill="#5ec4d5" d="M 53.5,162.5 C 106.148,163.736 158.815,164.403 211.5,164.5C 213.151,166.644 214.485,168.978 215.5,171.5C 198.162,171.382 180.828,171.048 163.5,170.5C 162.221,168.877 160.887,167.21 159.5,165.5C 140.547,166.487 121.547,166.821 102.5,166.5C 102.5,167.5 102.5,168.5 102.5,169.5C 86.1667,169.5 69.8333,169.5 53.5,169.5C 53.5,167.167 53.5,164.833 53.5,162.5 Z"/></g>
<g><path style="opacity:1" fill="#5dc1d5" d="M 53.5,162.5 C 53.5,162.167 53.5,161.833 53.5,161.5C 105.827,162.5 158.161,163.167 210.5,163.5C 211.167,163.5 211.5,163.833 211.5,164.5C 158.815,164.403 106.148,163.736 53.5,162.5 Z"/></g>
<g><path style="opacity:0.004" fill="#5dc1d4" d="M 213.5,162.5 C 214.525,162.897 214.692,163.563 214,164.5C 213.536,163.906 213.369,163.239 213.5,162.5 Z"/></g>
<g><path style="opacity:0.004" fill="#5ec3d5" d="M 215.5,165.5 C 216.525,165.897 216.692,166.563 216,167.5C 215.536,166.906 215.369,166.239 215.5,165.5 Z"/></g>
<g><path style="opacity:0.004" fill="#5fc5d4" d="M 157.5,167.5 C 158.833,168.167 158.833,168.167 157.5,167.5 Z"/></g>
<g><path style="opacity:0.979" fill="#61cbd5" d="M 0.5,168.5 C 15.8397,168.595 31.173,168.929 46.5,169.5C 46.5,172.5 46.5,175.5 46.5,178.5C 31.1533,178.623 15.8199,178.29 0.5,177.5C 0.5,174.5 0.5,171.5 0.5,168.5 Z"/></g>
<g><path style="opacity:0.004" fill="#5fc6d4" d="M 217.5,168.5 C 218.525,168.897 218.692,169.563 218,170.5C 217.536,169.906 217.369,169.239 217.5,168.5 Z"/></g>
<g><path style="opacity:0.928" fill="#61cad5" d="M 53.5,169.5 C 69.8333,169.5 86.1667,169.5 102.5,169.5C 102.5,172.833 102.5,176.167 102.5,179.5C 86.1781,178.741 69.8447,178.408 53.5,178.5C 53.5,175.5 53.5,172.5 53.5,169.5 Z"/></g>
<g><path style="opacity:0.966" fill="#61cbd5" d="M 163.5,170.5 C 180.828,171.048 198.162,171.382 215.5,171.5C 217.745,174.32 219.745,177.32 221.5,180.5C 204.167,180.5 186.833,180.5 169.5,180.5C 167.102,177.429 165.102,174.095 163.5,170.5 Z"/></g>
<g><path style="opacity:0.008" fill="#61cad5" d="M 162.5,175.5 C 161.475,175.103 161.308,174.437 162,173.5C 162.464,174.094 162.631,174.761 162.5,175.5 Z"/></g>
<g><path style="opacity:0.004" fill="#61cad5" d="M 221.5,174.5 C 222.833,175.167 222.833,175.167 221.5,174.5 Z"/></g>
<g><path style="opacity:0.004" fill="#62ccd5" d="M 162.5,175.5 C 163.167,175.5 163.5,175.833 163.5,176.5C 163.167,176.167 162.833,175.833 162.5,175.5 Z"/></g>
<g><path style="opacity:0.01" fill="#62ccd6" d="M 163.5,176.5 C 164.338,176.842 164.672,177.508 164.5,178.5C 163.662,178.158 163.328,177.492 163.5,176.5 Z"/></g>
<g><path style="opacity:0.977" fill="#64d1d6" d="M 0.5,177.5 C 15.8199,178.29 31.1533,178.623 46.5,178.5C 46.5,181.5 46.5,184.5 46.5,187.5C 31.1603,187.405 15.827,187.071 0.5,186.5C 0.5,183.5 0.5,180.5 0.5,177.5 Z"/></g>
<g><path style="opacity:0.926" fill="#64d1d6" d="M 53.5,178.5 C 69.8447,178.408 86.1781,178.741 102.5,179.5C 102.5,182.5 102.5,185.5 102.5,188.5C 86.1877,187.594 69.8544,187.26 53.5,187.5C 53.5,184.5 53.5,181.5 53.5,178.5 Z"/></g>
<g><path style="opacity:0.004" fill="#63ced5" d="M 164.5,178.5 C 165.167,178.5 165.5,178.833 165.5,179.5C 165.167,179.167 164.833,178.833 164.5,178.5 Z"/></g>
<g><path style="opacity:0.007" fill="#64d0d6" d="M 165.5,179.5 C 167.529,181.021 168.362,183.021 168,185.5C 166.441,183.783 165.608,181.783 165.5,179.5 Z"/></g>
<g><path style="opacity:0.967" fill="#64d1d6" d="M 169.5,180.5 C 186.833,180.5 204.167,180.5 221.5,180.5C 223.436,183.456 225.436,186.456 227.5,189.5C 210.167,189.5 192.833,189.5 175.5,189.5C 173.265,186.709 171.265,183.709 169.5,180.5 Z"/></g>
<g><path style="opacity:0.004" fill="#64cfd5" d="M 225.5,180.5 C 226.525,180.897 226.692,181.563 226,182.5C 225.536,181.906 225.369,181.239 225.5,180.5 Z"/></g>
<g><path style="opacity:0.004" fill="#65d1d5" d="M 227.5,183.5 C 228.525,183.897 228.692,184.563 228,185.5C 227.536,184.906 227.369,184.239 227.5,183.5 Z"/></g>
<g><path style="opacity:0.975" fill="#67d7d6" d="M 0.5,186.5 C 15.827,187.071 31.1603,187.405 46.5,187.5C 46.5,191.167 46.5,194.833 46.5,198.5C 31.2146,197.531 15.8813,197.198 0.5,197.5C 0.5,193.833 0.5,190.167 0.5,186.5 Z"/></g>
<g><path style="opacity:0.004" fill="#66d3d6" d="M 168.5,186.5 C 170.337,186.639 170.67,187.306 169.5,188.5C 168.702,188.043 168.369,187.376 168.5,186.5 Z"/></g>
<g><path style="opacity:0.933" fill="#67d7d6" d="M 53.5,187.5 C 69.8544,187.26 86.1877,187.594 102.5,188.5C 102.5,191.833 102.5,195.167 102.5,198.5C 86.1667,198.5 69.8333,198.5 53.5,198.5C 53.5,194.833 53.5,191.167 53.5,187.5 Z"/></g>
<g><path style="opacity:0.004" fill="#67d5d6" d="M 170.5,189.5 C 171.833,190.167 171.833,190.167 170.5,189.5 Z"/></g>
<g><path style="opacity:0.97" fill="#67d7d6" d="M 175.5,189.5 C 192.833,189.5 210.167,189.5 227.5,189.5C 230.069,192.961 232.403,196.628 234.5,200.5C 216.826,200.461 199.16,200.127 181.5,199.5C 179.5,196.167 177.5,192.833 175.5,189.5 Z"/></g>
<g><path style="opacity:0.006" fill="#68d7d7" d="M 172.5,192.5 C 173.995,192.415 174.995,193.081 175.5,194.5C 173.604,195.639 172.604,194.973 172.5,192.5 Z"/></g>
<g><path style="opacity:0.976" fill="#69dbd7" d="M 0.5,197.5 C 15.8813,197.198 31.2146,197.531 46.5,198.5C 46.5,200.167 46.5,201.833 46.5,203.5C 31.1953,202.564 15.862,202.231 0.5,202.5C 0.5,200.833 0.5,199.167 0.5,197.5 Z"/></g>
<g><path style="opacity:0.928" fill="#69dbd7" d="M 53.5,198.5 C 69.8333,198.5 86.1667,198.5 102.5,198.5C 102.5,200.167 102.5,201.833 102.5,203.5C 86.1667,203.5 69.8333,203.5 53.5,203.5C 53.5,201.833 53.5,200.167 53.5,198.5 Z"/></g>
<g><path style="opacity:0.004" fill="#69dad6" d="M 237.5,198.5 C 238.833,199.167 238.833,199.167 237.5,198.5 Z"/></g>
<g><path style="opacity:0.008" fill="#69dad7" d="M 177.5,198.5 C 178.525,198.897 178.692,199.563 178,200.5C 177.536,199.906 177.369,199.239 177.5,198.5 Z"/></g>
<g><path style="opacity:0.966" fill="#69dbd7" d="M 181.5,199.5 C 199.16,200.127 216.826,200.461 234.5,200.5C 235.89,201.899 236.89,203.566 237.5,205.5C 219.746,205.318 202.079,204.985 184.5,204.5C 183.692,202.78 182.692,201.113 181.5,199.5 Z"/></g>
<g><path style="opacity:0.006" fill="#6adcd6" d="M 180.5,204.5 C 178.915,203.998 178.415,202.998 179,201.5C 180.039,202.244 180.539,203.244 180.5,204.5 Z"/></g>
<g><path style="opacity:0.004" fill="#6adbd7" d="M 239.5,201.5 C 240.525,201.897 240.692,202.563 240,203.5C 239.536,202.906 239.369,202.239 239.5,201.5 Z"/></g>
<g><path style="opacity:0.932" fill="#6bddd7" d="M 0.5,202.5 C 15.862,202.231 31.1953,202.564 46.5,203.5C 46.185,216.883 46.5184,230.216 47.5,243.5C 46.5,244.333 45.5,245.167 44.5,246C 44.8333,246.333 45.1667,246.667 45.5,247C 32.6313,249.463 19.6313,250.129 6.5,249C 6.83333,248.667 7.16667,248.333 7.5,248C 4.21318,247.999 2.04652,246.499 1,243.5C 0.617425,244.056 0.117425,244.389 -0.5,244.5C -0.5,243.833 -0.5,243.167 -0.5,242.5C 0.495596,229.344 0.828929,216.01 0.5,202.5 Z"/></g>
<g><path style="opacity:0.927" fill="#6bddd7" d="M 53.5,203.5 C 69.8333,203.5 86.1667,203.5 102.5,203.5C 102.343,212.152 102.343,220.652 102.5,229C 101.051,233.352 99.2174,237.519 97,241.5C 95.3626,243.81 93.196,245.31 90.5,246C 82.2303,247.537 73.897,247.87 65.5,247C 59.8406,246.004 56.0073,242.838 54,237.5C 53.5001,226.172 53.3335,214.838 53.5,203.5 Z"/></g>
<g><path style="opacity:0.004" fill="#6bddd6" d="M 180.5,204.5 C 181.525,204.897 181.692,205.563 181,206.5C 180.536,205.906 180.369,205.239 180.5,204.5 Z"/></g>
<g><path style="opacity:0.952" fill="#6bddd7" d="M 184.5,204.5 C 202.079,204.985 219.746,205.318 237.5,205.5C 243.5,214.167 249.5,222.833 255.5,231.5C 255.5,234.5 255.5,237.5 255.5,240.5C 254.323,243.842 251.989,246.009 248.5,247C 236.429,247.937 224.429,247.604 212.5,246C 210,243.167 207.5,240.333 205,237.5C 198.67,226.169 191.836,215.169 184.5,204.5 Z"/></g>
<g><path style="opacity:0.004" fill="#6addd6" d="M 241.5,205.5 C 240.833,204.167 240.833,204.167 241.5,205.5 Z"/></g>
<g><path style="opacity:0.004" fill="#6bddd6" d="M 241.5,205.5 C 242.833,206.167 242.833,206.167 241.5,205.5 Z"/></g>
<g><path style="opacity:0.004" fill="#6bded6" d="M 243.5,207.5 C 244.525,207.897 244.692,208.563 244,209.5C 243.536,208.906 243.369,208.239 243.5,207.5 Z"/></g>
<g><path style="opacity:0.004" fill="#6bded6" d="M 182.5,208.5 C 184.337,208.639 184.67,209.306 183.5,210.5C 182.702,210.043 182.369,209.376 182.5,208.5 Z"/></g>
<g><path style="opacity:0.004" fill="#6bded6" d="M 184.5,211.5 C 185.833,212.167 185.833,212.167 184.5,211.5 Z"/></g>
<g><path style="opacity:0.004" fill="#6bded6" d="M 247.5,214.5 C 248.833,215.167 248.833,215.167 247.5,214.5 Z"/></g>
<g><path style="opacity:0.004" fill="#6bded6" d="M 248.5,217.5 C 249.077,216.227 249.743,216.227 250.5,217.5C 250.03,218.463 249.363,218.463 248.5,217.5 Z"/></g>
<g><path style="opacity:0.004" fill="#6bded6" d="M 190.5,220.5 C 191.525,220.897 191.692,221.563 191,222.5C 190.536,221.906 190.369,221.239 190.5,220.5 Z"/></g>
<g><path style="opacity:0.004" fill="#6bded6" d="M 253.5,222.5 C 254.525,222.897 254.692,223.563 254,224.5C 253.536,223.906 253.369,223.239 253.5,222.5 Z"/></g>
<g><path style="opacity:0.004" fill="#6bded6" d="M 194.5,226.5 C 192.915,225.998 192.415,224.998 193,223.5C 194.039,224.244 194.539,225.244 194.5,226.5 Z"/></g>
<g><path style="opacity:0.004" fill="#6bded6" d="M 255.5,225.5 C 255.5,226.167 255.5,226.833 255.5,227.5C 254.167,226.833 254.167,226.167 255.5,225.5 Z"/></g>
<g><path style="opacity:0.005" fill="#6bded6" d="M 194.5,226.5 C 195.573,227.251 195.74,228.251 195,229.5C 194.517,228.552 194.351,227.552 194.5,226.5 Z"/></g>
<g><path style="opacity:0.005" fill="#6bded6" d="M 50.5,228.5 C 51.6225,230.288 51.7891,232.288 51,234.5C 50.5045,232.527 50.3379,230.527 50.5,228.5 Z"/></g>
<g><path style="opacity:0.004" fill="#6bded6" d="M 196.5,230.5 C 197.525,230.897 197.692,231.563 197,232.5C 196.536,231.906 196.369,231.239 196.5,230.5 Z"/></g>
<g><path style="opacity:0.004" fill="#6bded6" d="M 198.5,233.5 C 199.833,234.167 199.833,234.167 198.5,233.5 Z"/></g>
<g><path style="opacity:0.009" fill="#6bded6" d="M 56.5,247.5 C 57.3864,246.224 58.3864,246.224 59.5,247.5C 58.5754,248.562 57.5754,248.562 56.5,247.5 Z"/></g>
<g><path style="opacity:0.004" fill="#6bded6" d="M 95.5,247.5 C 96.8333,248.167 96.8333,248.167 95.5,247.5 Z"/></g>
<g><path style="opacity:0.004" fill="#6bded6" d="M 61.5,248.5 C 62.8333,249.167 62.8333,249.167 61.5,248.5 Z"/></g>
<g><path style="opacity:0.004" fill="#6bded6" d="M 91.5,248.5 C 92.8333,249.167 92.8333,249.167 91.5,248.5 Z"/></g>
<g><path style="opacity:0.012" fill="#6bded6" d="M 227.5,249.5 C 232.316,248.35 237.316,248.184 242.5,249C 237.511,249.499 232.511,249.666 227.5,249.5 Z"/></g>
</svg>